<svg width="213" height="24" viewBox="0 0 213 24" fill="none" xmlns="http://www.w3.org/2000/svg">
<path d="M50.6014 16.518V1H54.4749V23.315H50.056L41.2892 7.50525V23.315H37.4473V1H42.4512L50.6014 16.518Z" fill="#FC7400"/>
<path d="M78.4277 1V23.2125H94.4119V19.4197H82.2459V13.4901H92.2459V9.68944H82.2459L82.2301 4.76122H93.9139L93.9297 1H78.4277Z" fill="#FC7400"/>
<path d="M0.0316206 1.00976H7.3834C7.3834 1.00976 12.8538 0.67858 14.2213 5.77239C14.2213 5.77239 15.8024 12.325 8.90909 13.8704L15.3913 23.1197H10.7036L3.80237 13.1608V23.104H0L0.0316206 1.00976ZM3.77075 4.21901V11.3472C3.77075 11.3472 8.52174 11.8045 9.8498 9.92787C10.3162 9.26551 10.7036 8.33507 10.6957 7.49924C10.6798 4.21113 6.24506 4.0692 3.77075 4.21901Z" fill="#FC7400"/>
<path d="M119.999 23.1888L116.102 19.0648C117.699 17.1566 118.655 14.7043 118.655 12.0234C118.655 5.93603 113.707 1.00781 107.612 1.00781C101.509 1.00781 96.5684 5.94392 96.5684 12.0234C96.5684 18.1107 101.517 23.0389 107.612 23.0389C109.802 23.0389 111.841 22.3924 113.556 21.2963L115.343 23.1888H119.999ZM112.11 14.8384H107.454L111.082 18.6863C110.039 19.2304 108.861 19.5379 107.604 19.5379C103.438 19.5379 100.062 16.171 100.062 12.0155C100.062 7.86001 103.438 4.49305 107.604 4.49305C111.77 4.49305 115.145 7.86001 115.145 12.0155C115.145 13.6871 114.592 15.2326 113.659 16.4785L112.11 14.8384Z" fill="#FC7400"/>
<path d="M57.5256 1L57.5098 4.76122L63.6046 4.75333H64.0394V23.2361L68.4742 23.2519V16.4707H68.4663V10.5489H68.4742V4.75333H68.9327L74.9959 4.76122L75.0117 1H57.5256Z" fill="#FC7400"/>
<path d="M33.163 5.1949V1H29.1709V7.67873H29.1788V15.0592C29.1788 18.4893 27.329 19.5774 25.4634 19.5774C23.5899 19.5774 21.748 18.4893 21.748 15.0592V5.1949V1.0552H17.7559V5.1949V15.2879C17.7559 21.0125 20.9812 23.2913 25.4713 23.2913C29.9851 23.2913 33.1867 21.0204 33.1867 15.2879L33.163 5.1949Z" fill="#FC7400"/>
<path d="M138.215 23.5C136.024 23.5 134.082 23.0364 132.387 22.1092C130.713 21.182 129.411 19.8736 128.481 18.1841C127.551 16.4739 127.086 14.4959 127.086 12.25C127.086 10.0247 127.561 8.06731 128.512 6.37775C129.483 4.66758 130.816 3.3489 132.511 2.4217C134.226 1.4739 136.169 1 138.339 1C140.426 1 142.297 1.42239 143.95 2.26717L143.516 6.03778C142.627 5.64629 141.77 5.34753 140.943 5.14148C140.137 4.91484 139.259 4.80151 138.308 4.80151C136.097 4.80151 134.392 5.48146 133.193 6.84135C132.015 8.20124 131.426 10.0041 131.426 12.25C131.426 14.4959 132.005 16.2988 133.162 17.6587C134.34 19.0185 136.024 19.6985 138.215 19.6985C139.186 19.6985 140.075 19.5955 140.881 19.3894C141.708 19.1834 142.586 18.8743 143.516 18.4622L143.95 22.2328C142.152 23.0776 140.24 23.5 138.215 23.5Z" fill="#FC7400"/>
<path d="M150.038 23.3764C148.756 23.3764 147.682 22.9643 146.814 22.1401C145.966 21.2953 145.543 20.1621 145.543 18.7404C145.543 17.4011 146.028 16.3297 147 15.5261C147.971 14.7019 149.118 14.125 150.441 13.7953C151.763 13.4451 153.034 13.2493 154.254 13.2081C154.212 12.3015 153.975 11.6525 153.541 11.261C153.127 10.8695 152.435 10.6738 151.464 10.6738C150.782 10.6738 150.11 10.7665 149.449 10.9519C148.808 11.1374 148.064 11.4361 147.217 11.8482L146.876 8.72665C148.756 7.82006 150.637 7.36676 152.518 7.36676C154.336 7.36676 155.721 7.86126 156.672 8.85028C157.643 9.83929 158.129 11.4155 158.129 13.579V17.7514C158.129 18.5343 158.16 19.101 158.222 19.4512C158.304 19.7809 158.428 19.9973 158.594 20.1003C158.78 20.1827 159.079 20.2239 159.493 20.2239H159.989L159.648 23.3764H158.253C157.405 23.3764 156.692 23.2218 156.114 22.9128C155.535 22.5831 155.091 22.1401 154.781 21.5838C154.285 22.1401 153.603 22.5831 152.735 22.9128C151.887 23.2218 150.988 23.3764 150.038 23.3764ZM151.65 20.4402C152.042 20.4402 152.487 20.3475 152.983 20.1621C153.479 19.956 153.913 19.6779 154.285 19.3276V15.8043C153.045 15.8661 151.949 16.1339 150.999 16.6078C150.048 17.0817 149.573 17.7411 149.573 18.5859C149.573 19.2246 149.738 19.6985 150.069 20.0076C150.399 20.296 150.926 20.4402 151.65 20.4402Z" fill="#FC7400"/>
<path d="M162.129 7.61401H165.725L165.818 9.25206C166.273 8.73695 166.851 8.28365 167.554 7.89217C168.277 7.50069 169.032 7.30494 169.817 7.30494C170.065 7.30494 170.292 7.32555 170.499 7.36676L170.22 11.1374C169.827 11.0343 169.383 10.9828 168.887 10.9828C168.246 10.9828 167.657 11.1374 167.12 11.4464C166.583 11.7349 166.2 12.0955 165.973 12.5282V23.0673H162.129V7.61401Z" fill="#FC7400"/>
<path d="M179.56 23.3764C177.762 23.3764 176.222 23.0158 174.941 22.2946C173.68 21.5529 172.73 20.5742 172.089 19.3585C171.469 18.1223 171.159 16.7521 171.159 15.2479C171.159 13.8056 171.459 12.487 172.058 11.2919C172.657 10.0968 173.525 9.14904 174.662 8.44849C175.799 7.72734 177.152 7.36676 178.723 7.36676C180.17 7.36676 181.389 7.66552 182.381 8.26305C183.394 8.86058 184.148 9.66415 184.644 10.6738C185.161 11.6834 185.419 12.8166 185.419 14.0735C185.419 14.6916 185.336 15.3922 185.171 16.1751H175.158C175.365 17.535 175.902 18.5549 176.77 19.2349C177.638 19.8942 178.682 20.2239 179.901 20.2239C181.575 20.2239 183.125 19.8015 184.551 18.9567L184.737 22.2019C184.076 22.5522 183.301 22.8407 182.412 23.0673C181.544 23.2734 180.593 23.3764 179.56 23.3764ZM181.513 13.579C181.513 12.7754 181.286 12.0646 180.831 11.4464C180.376 10.8283 179.674 10.5192 178.723 10.5192C177.772 10.5192 177.008 10.7974 176.429 11.3537C175.85 11.91 175.458 12.6518 175.251 13.579H181.513Z" fill="#FC7400"/>
<path d="M195.514 23.3764C193.716 23.3764 192.176 23.0158 190.895 22.2946C189.634 21.5529 188.684 20.5742 188.043 19.3585C187.423 18.1223 187.113 16.7521 187.113 15.2479C187.113 13.8056 187.413 12.487 188.012 11.2919C188.611 10.0968 189.479 9.14904 190.616 8.44849C191.753 7.72734 193.106 7.36676 194.677 7.36676C196.124 7.36676 197.343 7.66552 198.335 8.26305C199.348 8.86058 200.102 9.66415 200.598 10.6738C201.115 11.6834 201.373 12.8166 201.373 14.0735C201.373 14.6916 201.29 15.3922 201.125 16.1751H191.112C191.319 17.535 191.856 18.5549 192.724 19.2349C193.592 19.8942 194.636 20.2239 195.855 20.2239C197.529 20.2239 199.079 19.8015 200.505 18.9567L200.691 22.2019C200.03 22.5522 199.255 22.8407 198.366 23.0673C197.498 23.2734 196.547 23.3764 195.514 23.3764ZM197.467 13.579C197.467 12.7754 197.24 12.0646 196.785 11.4464C196.33 10.8283 195.628 10.5192 194.677 10.5192C193.726 10.5192 192.962 10.7974 192.383 11.3537C191.804 11.91 191.412 12.6518 191.205 13.579H197.467Z" fill="#FC7400"/>
<path d="M203.997 7.61401H207.593L207.686 9.25206C208.141 8.73695 208.72 8.28365 209.422 7.89217C210.146 7.50069 210.9 7.30494 211.685 7.30494C211.933 7.30494 212.161 7.32555 212.367 7.36676L212.088 11.1374C211.696 11.0343 211.251 10.9828 210.755 10.9828C210.115 10.9828 209.526 11.1374 208.988 11.4464C208.451 11.7349 208.069 12.0955 207.841 12.5282V23.0673H203.997V7.61401Z" fill="#FC7400"/>
</svg>
